<svg version="1" xmlns="http://www.w3.org/2000/svg" width="1224" height="1224" viewBox="0 0 918.000000 918.000000"><path d="M676.9 6.2c-2.9 7.9-10.3 21.5-17 31.6-17.9 26.6-51.3 59.8-77.7 77.1-7.5 5-9.5 7.2-7.4 8.5 1.1.7 19.1-7.1 29.9-12.9 41.8-22.5 77.2-51.7 98.5-81.6l5.5-7.6 5.1 10.6c14.6 29.8 42.6 57.5 77.4 76.5 8.4 4.5 10.8 5 10.8 2.2 0-2.9 6-13.4 10-17.3 2.3-2.3 6.4-5.3 9-6.5 5.4-2.5 6.5-5.2 2.8-6.7-1.3-.5-8.4-2.8-15.8-5.1-40.1-12.5-72.4-30.8-89.7-51.1-2.4-2.8-4.3-5.4-4.3-5.8 0-.5 1.8-1.1 4.1-1.4 5.1-.7 10.5-5.1 6.7-5.5-1.6-.1-3.6-.6-6.3-1.5-1.1-.3-3.1-.8-4.5-1.1-1.4-.2-5.4-1.2-9-2.1-3.6-.9-7.3-1.9-8.2-2.1-2.4-.5-6.1-1.4-7.3-1.8-.5-.2-2.3-.6-4-1-1.6-.4-3.7-1-4.6-1.2-1.2-.3-2.2 1.1-4 5.8z"/><path d="M725.2 89.3c-2.9 4-6.7 9-8.5 11.1l-3.3 3.9h-76.1l1 3.8.9 3.9h60.3c59.8 0 60.2 0 62.1-2.1 1.9-2.1 1.8-2.1-1.1-4.6-1.7-1.4-4.3-3.7-6-5.2C748 94.4 732.2 82 731.4 82c-.5 0-3.3 3.3-6.2 7.3zM145.6 88.8c-7.8 15.4-28.4 36.7-48 49.5-6.3 4.2-7.8 7-2.4 4.7 17.2-7.5 44.8-29.7 56-45.1 3.7-5.1 4.4-5.8 5.3-4.3 4.7 7.9 9.6 14.3 16.4 21 8.8 8.7 8.6 8.5 15.6 13.4 2.8 1.9 5.2 3.7 5.5 4 .3.3 1.9 1.2 3.5 2.2 1.7.9 4.4 2.4 6.1 3.4l3.2 1.8 2.7-3.2c1.5-1.8 3.3-3.2 4-3.2 4.3 0 1.2-2.5-8.8-7.4-15.2-7.3-28.5-16.4-37.9-25.8-4.3-4.2-7.8-8.1-7.8-8.7 0-.5.9-1.3 2-1.6 3.3-1.1 2.3-2.1-3.2-3.4-2.9-.6-6.3-1.4-7.5-1.7-1.8-.5-2.6.2-4.7 4.4zM280.5 100c0 8.2-.2 15.1-.5 15.1-.3.1-4.7.3-9.7.4-5.1.1-9.5.4-9.8.7-.3.3-.3 1.2 0 2 .5 1.1 2.4 1.5 8.7 1.4 5.6-.1 8.2.3 8.5 1.2.7 1.7-2.3 13.8-6.4 25.7-3.4 9.8-7.8 19.2-11.6 24.8-1.3 1.9-1.6 3.2-1 3.8 1.8 1.8 11.5-11.4 18.3-24.9 1.7-3.4 3.2-6.2 3.3-6.2.1 0 .2 14.1.2 31.3v31.2l2.9-.2c5.7-.4 5.6.3 5.6-34.7v-32.1l3.6 5.3c1.9 2.9 4.3 7.2 5.4 9.6 2 4.7 5.1 6.6 7.5 4.6 4.8-4-2.1-14.8-12.8-20.5l-3.8-2 .3-8.5.3-8.5 7.5.2c8.4.3 12-.3 12-1.7 0-1-.6-1.7-6.7-7.3l-3.1-2.8-2.8 4c-2.1 2.8-3.6 4-5.1 3.8-2.3-.1-2.3-.4-2.3-12.9 0-11.8.1-12.7 2-13.3 2.7-.9 2.5-3.5-.2-3.6-1.3 0-4.1-.3-6.3-.5l-4.1-.5.1 15.1z"/><path d="M313.8 89.4c-.2.6-.3 24.1-.3 52.3l.1 51.2-6.3 1.2c-9 1.8-9.1 1.9-6.3 7.8 2.5 5.5 3.4 6.1 4.9 3.3.5-.9 2.6-2.3 4.8-3.1 2.1-.7 5.2-1.9 6.8-2.7 1.7-.7 9.2-4 16.8-7.2 7.6-3.2 13.8-6.3 13.7-6.8-.1-1.1-2.3-.8-12.5 1.8-4.4 1.1-9.2 2.2-10.7 2.5l-2.7.4.2-23.7.2-23.7 5.3-.1c2.9-.1 5.7.1 6.2.4.5.3 2.1 4.6 3.5 9.5 3.7 13.1 7.1 21 13.2 30.2 5.6 8.5 13.5 16.4 20 19.9l3.8 2.1 4.1-4.3 4.2-4.2-6.4-3.2c-7.8-3.8-16.2-10.6-21.5-17.3l-4-5 7.8-4.2c4.3-2.2 10.1-5.5 12.9-7.3 2.8-1.8 6.2-3.2 7.5-3.2 2.2-.1 1.9-.5-2.6-4.5l-5-4.5-8.9 8.7c-10.7 10.4-9.7 9.5-11.8 11.1-1.4 1.2-2 .8-4.3-3.2-3.1-5.3-8.7-19.5-8.1-20.4.2-.4 5.3-.7 11.3-.7l10.8.1.3 3.2c.2 2 .9 3.2 1.8 3.2 1.7 0 5.6-1.9 6.4-3.1.3-.4.5-11.4.5-24.3V98l3-1 3-1.1-4-3.4c-5.5-4.7-7-5.1-9.8-2.3-2.3 2.3-2.7 2.4-20.8 2.3-16.5-.1-18.8-.3-22.6-2.2-2.8-1.4-4.3-1.7-4.5-.9zm47.2 16.3v9.3h-38.8v-8.8c0-4.8.1-8.9.3-9.2.2-.3 8.9-.5 19.4-.5H361v9.2zm0 23.2v9.8l-19.4.1-19.3.1-.1-9.9v-10H361v9.9zM171.1 128.7l-3.1 3.8-21.8.1c-11.9.1-22.3.2-22.9.3-1.4.1-1.8 3-.5 3.2 2.2.4 59.9.5 61 .1 2.7-.9 1.6-2.5-5.5-8l-4.1-3.2-3.1 3.7zM754.8 141.1c-3.4 4-6.9 7.8-7.6 8.5-1.1 1.1-9.9 1.4-47.5 1.4h-46.2l-12.5-4.9c-6.9-2.7-14.7-5.8-17.5-6.9l-5-2V251h5.4c10.9 0 27-6.1 27.2-10.4.1-1.2.2-4.2.2-6.9V229h48.4c37.9 0 48.3.3 48.4 1.2.1.7.3 4.7.4 8.8.1 4.1.3 8 .4 8.6.3 2.7 25.2-1.5 30.8-5.1l2.3-1.5V164.3l3.8-1.1c2.1-.7 4.7-2.1 5.6-3.1 1.7-1.9 1.7-2-.2-3-1.1-.6-2.6-1.7-3.4-2.3-.7-.7-4.2-3.5-7.8-6.2-3.6-2.8-9.3-7.1-12.7-9.8l-6.1-4.8-6.4 7.1zm-6.3 49.3v30.9h-47c-25.8-.1-47.7-.2-48.5-.2-1.3-.1-1.5-4.1-1.5-31.1l-.1-31 48.6.2 48.5.3v30.9zM183.3 154.7l-2.1 2.7-28.4-.1c-26.6 0-28.6-.1-33-2.1l-4.8-2.1V207l3.2-.5c4.5-.8 5.8-2.2 5.8-6.1V197l29.2.2 29.3.3v4c0 4.3 1.1 4.8 6.6 2.7l2.4-1v-20.1l-.1-20.1 2.8-.9c1.6-.6 2.8-1.2 2.8-1.4 0-.5-10.5-8.7-11.1-8.7-.2 0-1.4 1.2-2.6 2.7zm-1.1 7.6c.2.7.3 7.7.3 15.7l-.1 14.5-29.1.3-29.1.2-.1-15.9-.1-15.9h28.9c21.4 0 29 .3 29.3 1.1zM125 255.2c-5.9 15.7-16.3 32.9-26.4 43.6-3.8 4-6.2 7.3-5.6 7.7 2.8 1.7 24.1-17.7 31.2-28.6l3.7-5.6H168c22.5 0 40.5-.4 41-.9 1.2-1.2.5-2.1-5.6-7.1l-5.1-4.2-3.9 4.2-3.9 4.2-29.3-.1c-16.1-.1-29.5-.3-29.8-.6-.8-.9 2.8-7.8 4.1-7.8.6 0 1.9-.6 2.9-1.3 1.7-1.2 1.3-1.5-3.5-3.4-3-1.2-6.1-2.4-7-2.8-1.2-.4-1.9.3-2.9 2.7zM315.5 252.8c-.3.3-.5 7.4-.5 15.8v15.2l-27-.1c-14.9 0-27.3.3-27.6.6-.4.3-.4 1.3-.1 2.1.5 1.3 4.1 1.5 23.7 1.4 12.7 0 23.2.1 23.5.3.6.7-7.3 15.7-11.7 22.3-9.2 13.6-22.7 28.1-33.2 35.7-4 2.8-5.1 4.9-2.7 4.9 1.7 0 18.7-11.8 25.1-17.4 8.9-7.8 18.1-18.5 24.3-28.3 2.9-4.6 5.4-8.3 5.7-8.3.3 0 .4 6 .3 13.2-.1 7.3-.3 17.6-.3 22.8v9.5h-14.5c-8 0-14.5.3-14.5.6 0 2.8 3.2 3.4 16.1 3.3l13.4-.1-.2 14.4c-.2 13.2-.1 14.4 1.5 13.9.9-.2 2.9-.7 4.5-1 2.3-.6 2.7-1.1 2.8-4.4 0-2 .1-8 .2-13.2l.2-9.5 13.8-.1c7.9 0 14.2-.5 14.8-1.1.7-.7-.8-2.7-4.8-6.3l-5.7-5.2-1.6 2.3c-3.5 5.5-5.3 6.6-11 6.5l-5.5-.1-.2-26.7-.1-26.7 5.1 10.2c2.9 5.6 7.5 13.6 10.2 17.7 6 9 21 24.5 28.3 29.4l5.4 3.6 2.4-3c1.4-1.6 3.4-3.2 4.4-3.5 3.2-1 2.4-2.1-4.7-6-8.8-4.8-22.3-15.7-29.3-23.5-6.5-7.3-13.4-16.4-15.2-20-.6-1.4-1.9-3.3-2.7-4.3-1.7-2-4.4-1.8 27.5-1.8 12.2 0 22.7-.5 23.5-1 1.1-.8.2-2.1-4.6-6.4l-6-5.5-4 4.4-4 4.4-18-.1-18-.2-.2-12.8-.3-12.8 2.5-.9c3.5-1.3 3.1-2.8-.7-3.4-6.5-1-9.8-1.2-10.3-.8z"/><path d="M186 281l-3.2 4h-30c-27 0-30 .2-29.4 1.6.3.9.6 1.8.6 2 0 .8 74.5.4 75.8-.5 1-.6-.3-2.2-4.6-6l-6-5.1-3.2 4zM182.6 300l-2.8 2.9h-31.6c-44.8 0-41.1-.2-40.6 1.9.5 1.6 3 1.7 37.5 1.7H182l.1 6c.5 30 7.7 50.7 20.4 58.5 4.7 2.9 8.8 4 10.8 2.8 1.9-1 2.3-5.3.6-6.4-.8-.5-1-3.5-.6-9.5.3-4.9.2-8.9-.2-8.9s-1.6 2.7-2.6 6c-1 3.4-2.2 6.3-2.7 6.6-1.6 1-5.6-2.5-8.2-6.8-2.5-4.4-6.1-15.5-7-21.8-.3-1.9-.9-8.3-1.2-14.2l-.7-10.7 2.9-1.2 2.9-1.1-3-2.4c-8-6.6-7.7-6.5-10.9-3.4z"/><path d="M153.7 319.3c-2.6 4.5-6 9.7-7.6 11.6l-2.7 3.3-4.3-2.6c-4.5-2.9-25.4-13.6-26.5-13.6-.3 0-.6.6-.6 1.2 0 .7 4.1 4 9 7.3 5 3.3 10.9 7.7 13.3 9.7l4.2 3.8-7 6.5c-8.9 8.3-21.3 17.2-31 22.1-8.3 4.3-10.5 7.5-3.2 4.8 14.3-5.5 29-13.8 40.7-23.3l6.5-5.2 5.3 5.8c3 3.2 7.3 8.8 9.7 12.4 5.1 7.6 7.7 9 10.2 5.3 1.3-2.1 1.4-3.1.4-6.4-1.4-4.8-7.3-12.3-14.5-18.5-4.3-3.8-5.3-5.1-4.3-5.9 2-1.7 9.1-10.6 12.2-15.4 1.6-2.4 3.5-4.2 4.6-4.2 3.9 0 2.7-2-2.7-4.4-3.1-1.4-5.9-2.6-6.3-2.6-.3.1-2.8 3.8-5.4 8.3zM638.5 335.2c-13.2 39.4-35 76.5-61.7 105-3.3 3.5-3.6 4.2-2.3 5.4 1.2 1.3 2.4.9 9.2-2.7 24.3-13.1 50-34.7 66.6-56.1 3.3-4.3 6.5-7.8 7.1-7.9.6 0 35.8-.2 78.1-.3 42.4-.1 77.8-.6 78.7-1 3.7-1.7 2.6-3.6-6-10.4-12.6-9.9-22.4-17.2-23.2-17.2-.4 0-4.5 4.7-9.1 10.5l-8.4 10.4-52.8.1h-52.9l2.3-3.8c1.2-2 3.3-5.6 4.6-8 2.1-3.5 3-4.2 5.6-4.2 3 0 8.7-3.3 7.7-4.4-.7-.7-41.2-16.6-42.2-16.6-.5 0-1.1.6-1.3 1.2z"/><path d="M758.8 393.3l-8.3 10.3h-55.2c-48.7-.1-55.2.1-54.8 1.4.2.8.7 2.6 1 4l.6 2.5 75.2-.1c76 0 79.7-.2 79.7-3.5 0-1.3-1.1-2.4-7-6.9-2.5-1.9-4.7-3.7-5-4-.3-.3-4.4-3.6-9.2-7.3l-8.7-6.7-8.3 10.3zM113.7 430.5c-3.5 14-10.8 33.8-17.2 46.7-2.9 5.9-5 11-4.5 11.3 1 .6 5.2-4.6 10.9-13.4l4.1-6.4V542h2.3c1.3 0 3.1-.6 4.1-1.3 1.8-1.3 1.9-3.8 1.9-41 0-37.5.1-39.7 1.9-40.3 2-.6 2.5-2.4.6-2.4-3.6-.1-4-1.6-1.7-6.6 3.4-7.6 3.7-8.5 6.3-15.8 1.8-5.3 3-7.3 5.2-8.4 3.2-1.7 3.3-1.7-6.4-4.5l-5-1.5-2.5 10.3zM158 423.7c-4.2 11.8-15.2 31.5-20 35.8-1.9 1.7-1.9 3.5.1 3.5.6 0 4.9-3.9 9.7-8.7 5.2-5.4 8.7-8.3 9-7.5.2.8 2.8 4.6 5.8 8.5 3 4 5.4 7.5 5.4 7.9 0 2.2-19.7 14.1-29.4 17.8-2 .7-2.6 1.4-1.9 2.1 1.5 1.5 20.5-5.8 29.7-11.4l7.2-4.3 5 3.3c6.3 4.3 13.9 7.8 22.8 10.5 5.8 1.8 7.1 1.9 7.5.7.2-.8 1.8-2.7 3.4-4.2 1.6-1.5 2.8-3 2.5-3.2-.2-.2-2.2-.7-4.4-1-8.5-1.3-27.9-7.7-30.2-10-.3-.2 1.6-2.7 4.2-5.6 4.9-5.4 9.7-12.2 10.9-15.2.5-1.4 1.9-1.7 7.9-1.8 11.6-.1 12.1-.6 5.3-6.6l-5.8-5.1-2.6 3.2c-1.4 1.7-3 3.4-3.6 3.8-1.1.8-34.5 1.1-34.5.3 0-2 4.8-8.8 6.6-9.6 1.3-.4 2.4-1.2 2.4-1.7 0-.7-9.9-5.2-11.4-5.2-.1 0-.8 1.7-1.6 3.7zm27 18.1c0 1.2-6.9 11.4-9.8 14.5l-2.6 2.7-4.4-4.2c-4.7-4.6-10.2-11.5-10.2-13 0-.4 6.1-.8 13.5-.8s13.5.3 13.5.8zM283.6 421.7c-.3 1-1.5 6.3-2.6 11.8-1.1 5.4-2.5 10.2-3.2 10.6-1.6 1-5.2.2-9.3-2.1-1.9-1.1-3.5-1.6-3.6-1.2 0 .4-.2 21.7-.2 47.5-.2 51.4-.6 48.1 5.7 45.7 2.4-.9 2.6-1.5 2.6-6.5V522h23.9l.3 4.7c.3 4.5.5 4.8 2.8 4.5 5.2-.7 5.1-.1 5.1-42l.1-39.1 3-1c3.6-1.3 3.2-2.1-3.5-6.9l-4.4-3.1-2.5 2.7c-2.2 2.5-3.1 2.8-8.2 2.6-3.1-.1-5.9-.3-6.1-.6-.9-.8 9.5-17.3 11.4-18 3.6-1.3 2.3-2.6-3.6-3.8-3.2-.7-6.1-1.4-6.5-1.6-.4-.2-.9.4-1.2 1.3zm13.4 42.5c0 15.7 0 15.8-2.2 15.9-3.7.1-18.1.1-20 0-1.6-.1-1.8-1.6-1.8-15.9v-15.7l12-.1h12v15.8zm0 36.8v17h-24v-34h24v17z"/><path d="M327.9 422.6c-.5 1.4-.9 3.1-.9 3.7 0 3.7-8.3 25.9-13.6 36.5-3.4 6.7-5.9 12.4-5.5 12.7 1.8 1.1 17.8-19.8 19.6-25.6.6-1.8 1.9-1.9 20.4-1.9h19.8l-.2 2.7c-.2 1.6-.6 8-.9 14.3-.4 6.3-.8 13.3-1.1 15.5-.2 2.2-.9 8.5-1.5 14-1.4 12.3-4.4 26.4-6.5 30.4-2.4 4.8-4.5 5.4-16.6 4.6-12.1-.7-14.6.5-5.3 2.6 6.3 1.4 10.4 4.1 10.4 7 0 4.7 13.6.3 17.6-5.7 3.4-5.2 7.1-19.5 8.9-34.4.3-2.5.7-6.1 1-8 1-7.8 2.8-34.6 2.6-38.6-.1-2.8.2-3.2 3.1-3.8l3.3-.7-5.5-5-5.5-5-2.5 3.1-2.5 3h-17.7c-9.8 0-17.8-.3-17.8-.7 0-2.1 6.6-16.3 7.6-16.3.6 0 1.6-.6 2.2-1.3.9-1-.3-1.8-5.4-3.4l-6.5-2.2-1 2.5zM748.6 429.5l-7.8 8.5h-67.9c-73.8 0-69.1-.4-66.9 5.4l1 2.6h68.5c54.1 0 68.5.3 68.6 1.2 0 .7.2 4.2.4 7.8.5 7.9 1.7 24.9 2 27 .1.8.5 4.2.9 7.5 1.1 9.6 5.3 29.3 8.1 38 3.4 10.4 9.8 23.7 14.5 30 15.2 20.5 36.9 31.7 49.2 25.4 8.5-4.3 9.8-12.7 3.9-24.1l-3.3-6.1.7-12.1c.3-6.7.8-14.3 1.1-17 .4-3.4.2-5.1-.7-5.7-1-.6-2.3 1.8-5 9.4-6.1 17.2-7.4 18.8-12.9 15-14.6-9.9-24.3-40.6-25.5-80.2l-.3-12.8 3.6-1.1c8.6-2.6 8.6-2.6-7.9-15.2-8.3-6.3-15.5-11.6-15.8-11.8-.4-.1-4.2 3.6-8.5 8.3zM126 445.8c-.1 9-.1 77.5-.1 79.3.1 1.2.8 1.5 2.9 1.1 5.4-1 5.2.4 5.2-41.4v-39l2.3-1.8c1.2-1 2-2 1.7-2.3-.3-.2-3.1-.7-6.2-1l-5.8-.6v5.7z"/><path d="M692.5 453.7c-1.9 7.6-19.7 39.3-22.1 39.3-.7 0-3.3-1.1-5.6-2.4-9-5-30.4-13.5-49.4-19.7-10.8-3.4-10.4-3.4-10.4-1 0 1.1 2.2 3.2 5.8 5.6 12.9 8.5 31.5 23.1 42.5 33.5l3.9 3.6-4.2 5.3c-5 6.3-23.7 25.2-29.8 30.1-2.4 1.9-5.6 4.5-7 5.8-5.2 4.5-22.8 16.4-32.4 21.9-10.3 5.8-12.9 9.1-6.2 7.8 7.2-1.3 26.3-8.8 42-16.6 16.7-8.1 37.6-21.3 46.8-29.4.6-.6 2.6-2.3 4.5-3.8l3.3-2.8 2 2.3c7.4 8.4 19.8 26.6 23.9 35.1 5.6 11.5 22.9 11.6 28.4.1 6.6-13.9-3.7-36-24.9-53.3-3.6-3-6.6-5.8-6.6-6.2 0-.4.6-1.4 1.3-2.1 5.3-5.6 17.1-21.6 21.9-29.7 2.3-3.8 3.2-4.5 6.4-4.8 3.8-.3 6.7-1.9 6.2-3.5-.4-1-36.5-17.8-38.3-17.8-.7 0-1.6 1.2-2 2.7zM323.8 469.6c-.3.3.6 1.7 2 3.2 5 5.4 11 14.2 13.3 19.7 2.6 6.3 6.1 8.3 8.6 5 4.7-6.6-3.8-18.9-17.9-26.1-5.2-2.6-5.2-2.6-6-1.8zM172.5 479.7c-6.1 5.3-14.1 10.6-23.2 15.2-5.8 2.9-8.1 4.5-7.7 5.5.5 1.2 1.7 1 7.2-.9 10.5-3.5 18.9-7.3 25.9-11.6 3.6-2.1 7.3-3.9 8.3-3.9 3.3 0 3.2-1.9-.2-3.6-1.8-.9-4-2.2-4.8-2.9-1.3-1.1-2.1-.7-5.5 2.2zM185 493c-9.7 8.6-27.7 19.6-39.7 24.2-4.4 1.7-5.8 3.8-2.5 3.8 1.8 0 9.8-2.4 13.7-4 1.1-.5 5.3-2.3 9.4-4 9-3.9 14.7-7 22.6-12.3 3.3-2.2 7.3-4.3 9-4.7l3-.6-4.9-3.2c-2.8-1.8-5.2-3.2-5.5-3.2-.4 0-2.6 1.8-5.1 4zM196.7 507.5c-13.4 13.8-32.6 24.1-57.1 30.5-8 2.1-9 4.5-1.5 3.5 8.6-1.1 27.4-6.2 35.5-9.6 9.8-4.1 22.4-11.8 29.6-18 3.2-2.7 6.3-4.9 7-4.8 5.4.7 4.7-.6-2.7-4.8l-5-2.8-5.8 6zM110.5 589.1c-.2.8-2.1 6.1-4.1 11.9-2 5.8-4 10.8-4.3 11.3-.4.4-2.4.1-4.4-.8-6.6-2.7-7.2-1.9-2.5 3.4 2.4 2.7 5.6 7.1 6.9 9.7 2.6 5.1 5 6.4 7.5 4.3 2.3-1.9 1.1-7.6-2.2-11l-2.7-2.8 3-3.8c1.6-2.1 4.9-6.6 7.2-10 2.6-4 5.1-6.5 6.6-6.9 3.7-.9 3.1-1.8-2.7-3.9-2.9-1-5.9-2-6.5-2.3-.7-.2-1.5.2-1.8.9z"/><path d="M171.2 588.9c-.4.3-.8 3.9-.7 7.8 0 6.7-.1 7.3-2 7.4-1.1 0-8.3.2-16 .2-12.6.2-14 .4-13.7 1.9.2 1.6-.2 1.6-5.5-.3-3.1-1-6-1.8-6.4-1.7-.4.2-5.4 9.5-11.1 20.8-9.9 19.7-10.4 20.5-13.3 20.6-1.6.1-4.6.2-6.7.3l-3.6.1 1.8 4.7c1.7 4.4 3.5 5.6 5 3.4.6-.9 13-3.5 13.6-2.9.2.3.4 13.6.5 29.6.1 32-.1 30.9 5.9 27.9l2.5-1.2v-57.9l2.5-.7c5.8-1.6 6.9-1.2 8.1 3.5 1.2 4.8 3 6.2 5.9 4.6 3.4-1.8 2.9-8.4-1.2-14.3-2.5-3.4-10.8-9.8-11.9-9.1-.5.3.2 2.7 1.6 5.4 1.4 2.7 2.5 5.2 2.5 5.5 0 .3-4.5.5-10 .5h-10l5.1-6.3c2.8-3.4 8.5-11.3 12.7-17.5 4.8-7.1 8.2-11.2 9.3-11.2 1 0 2-.4 2.4-1 .3-.5 7.2-.8 16.2-.7l15.7.2.2 5.3c0 2.9-.4 5.6-.9 5.9-2.1 1.3-17.3.5-21.1-1.1-2.2-.9-4.2-1.4-4.5-1-.3.3-.6 11.5-.6 25 0 26.6 0 26.7 5.6 23.8 2.1-1.1 2.9-2.1 2.7-3.6-.3-2 .2-2.1 6-2.1 3.4 0 6.5.2 6.8.5.7.7-4.7 9.7-10.2 16.9-4.8 6.2-14.7 15.8-20.5 19.6-2.2 1.4-3.9 3.2-3.9 3.9 0 1.7 0 1.7 4.1-.3 10.9-5.3 26.8-18.3 32.4-26.4 1.5-2.1 3.1-3.9 3.4-3.9.4 0 .6 8.7.6 19.2 0 17.8.1 19.3 1.8 19.6 1 .2 2.9-.4 4.2-1.2l2.5-1.6v-22.8l.1-22.7 3.3 7.1c1.9 4 5.2 9.8 7.4 13.1 3.9 5.7 16.6 19.3 18.1 19.3.4 0 1.5-1.3 2.4-2.9 1-1.7 2.6-3.3 3.7-3.6 2.4-.8 2.6-2.1.4-2.9-3.7-1.4-13-8.3-18.7-14-6.4-6.2-13.3-15.3-12.4-16.3.5-.5 6.2-.7 12.3-.4 2.8.1 3.1.4 2.6 2.6-.4 2.2-.1 2.5 2.4 2.5 5.8 0 5.9-.4 6.1-19.2.1-9.5.2-18.3.2-19.4.1-1.5 1-2.4 2.9-2.9l2.7-.7-3-2.5c-6.9-5.7-7.3-5.8-9.9-3.4-1.9 1.8-3.6 2.2-9.2 2.3-12.4.1-11.4.6-11.4-6.1v-5.9l17.1-.1c10 0 17.6-.4 18.2-1 .6-.6-.3-2.1-2.8-4.3-7.1-6.2-7-6.2-10.2-2.2l-2.9 3.7h-18.9l-.3-5.5c-.3-5-.1-5.6 1.9-6.1 1.9-.5 2.4-2.7.6-2.9-.3-.1-2.7-.4-5.1-.8-2.5-.4-4.9-.4-5.4-.1zm-.7 42.6v6.9l-9.3.1c-6.8 0-9.2-.3-9.3-1.2-.1-.7-.1-3.6-.1-6.3 0-2.8 0-5.4.1-5.9s4.3-.8 9.4-.7l9.2.1v7zm27.6-6.7c.8.3.5 12.6-.4 13.3-.4.3-4.6.5-9.5.4l-8.7-.1-.3-7.1-.3-7 9.3.2c5.1.1 9.6.3 9.9.3zm-27.6 24.7v7l-9.3.2c-10.2.3-9.4.9-9.4-7.2 0-7.8-.7-7.3 9.5-7.1l9.2.1v7zm27.7-6.1c.2.6.3 3.8.3 7.1l-.1 6-9.7.3-9.7.3v-14.8h9.4c6.3-.1 9.6.3 9.8 1.1zM295.2 596.2c-4.3 1.1-4 2.5.8 4.4 5.2 2.1 5.4 2.8 3.6 13.9-.9 5.3-2.1 6.3-8.5 6.8-7.2.6-12.6-.8-17.5-4.3-2.6-2-4.3-2.7-5-2-1.5 1.5 1.8 7.4 6 10.7 3.5 2.6 4.4 2.8 12.6 2.8 4.8 0 8.8 0 8.8.1 0 0-.9 2.6-1.9 5.7-3 8.6-8.6 18.9-17.3 31.7-4.3 6.4-7.8 12.5-7.8 13.6 0 3.5 2.4 5.8 5.3 5 4.7-1.1 18.9-27.7 26.4-49.4 2-5.9 3.4-8.4 4.8-8.8 18.6-5.2 24.6-8.5 22.5-12.4-1.8-3.4-3.7-3.4-10.8-.2-9.1 4-10.2 4.4-10.2 2.9 0-.7.8-4.2 1.8-7.7.9-3.6 1.7-7.4 1.7-8.5 0-3.6-8.5-6-15.3-4.3zM339.5 620.6c-1.8 1.8-1.7 1.9 3.4 2.7 7 1 12.1 3.4 12.1 5.8 0 1.3-1.8 2.7-6.2 4.7-7.5 3.4-13.2 9.3-14.9 15.4-.7 2.6-.9 8.1-.6 13.9l.5 9.7-8.8.4c-7.1.3-9.7.9-14.6 3.4-7.5 3.8-9.9 7-9.8 13.5 0 4.2.6 5.5 3.3 8.3 6.9 7.1 24 8.1 32.5 2 3.7-2.7 6.4-8.6 6.1-13.4-.1-2.4.2-4 .9-4 2.1 0 11.1 5.8 16.9 10.9 6.2 5.4 7.7 6 9.7 3.6 2-2.4.2-7.2-4.3-11.1-4.5-3.9-18.9-11.4-21.9-11.4-1 0-1.9-.9-2.2-2.3-2.2-10.8-2.9-19-2.2-24.1.6-3.6 1.4-4.9 4.4-6.9 5.4-3.7 11.2-4.8 17.2-3.2 4.3 1.1 5.2 1.1 6.5-.2 4-3.9-.1-11.9-8.1-15.9-7-3.4-17.3-4.4-19.9-1.8zm-6.1 59.9c1.3 1.4.9 6.5-.8 10.6-1.2 2.7-6.4 5-12.5 5.3-10.6.5-17.3-4.3-14.1-10.2 2.5-4.6 8.9-7 18-7 5.4 0 8.5.4 9.4 1.3z"/><path d="M127 662.8c0 .5 1.1 3.7 2.5 7.3 1.4 3.5 2.8 7.5 3 8.9 1.2 6.4 1.5 7.4 2.7 8.2 5.9 3.7 8.3-6.8 3.3-14.4-4.2-6.3-11.5-12.7-11.5-10zM98.9 664.2c-.5 6.8-1.8 13.5-4.5 23.7-1.3 5.2-2.2 9.7-1.8 10 1.8 1.8 10.9-16.5 12.9-25.7.4-2.1 1.6-3.7 3.1-4.4 3.5-1.6 3-2.3-2.7-3.6-6.3-1.5-6.9-1.5-7 0zM750.2 668.6c0 1.8-.7 6.7-1.8 12.4-.2 1.4-.7 3.8-1 5.5-1.4 8.1-4.5 22.6-5.3 24.7l-.8 2.3h-47.4c-26.1 0-47.3.3-47.1.7.1.5.2 1.6.2 2.5.1 4.4.2 4.4 33.6 4.6l31.9.2-.4 7c-.2 3.8-.4 8.3-.6 10-.2 1.6-.3 4-.4 5.1-.1 2-.7 2.2-5.3 2.2-4.2 0-8.7-1.4-21-6.4-8.6-3.5-15.9-6.4-16.2-6.4-.2 0-.4 31.7-.5 70.5v70.4l6.2-.4c10.3-.8 16.1-2.5 21.7-6.7 2.4-1.8 2.8-2.6 2.6-6.9-.1-2.7.3-5 .9-5 3.1-.4 62.3-.4 63.8-.1 1.5.4 1.8 1.4 1.7 6.6-.3 11.4-.7 10.6 5.3 10.6 9.2 0 24-5.1 25-8.6.3-1.1.5-24 .5-50.9 0-27 .1-50.2.1-51.7.1-2.1.9-3.1 3.4-4.1 6.8-2.9 6.6-3.8-3-11.3-4.8-3.7-9-7.1-9.3-7.4-.3-.3-2.8-2.2-5.6-4.2l-5.1-3.7-7.1 7.8-7.1 7.8H745c-9.4 0-17.2-.2-17.4-.6-.2-.3 1.2-2.5 3.2-4.7 2.1-2.2 6.1-7.5 9.1-11.7l5.5-7.6h37.5c20.7 0 38.4-.3 39.3-.6 2.9-1.1 3.1-3.7.4-5.9-1.3-1.2-7.9-6.7-14.6-12.4L795.9 692l-2.3 2.7c-1.2 1.6-4.9 6.3-8.1 10.5-3.1 4.3-6 7.9-6.4 7.9-.8.2-29.1.4-29.1.3 0-.1 2.6-2.3 5.8-4.9 3.1-2.5 10.8-9.5 17.1-15.3 6.6-6.2 12.9-11.2 15-12 4.4-1.5 6.9-3.8 5.6-5.1-.6-.4-5-1.6-10-2.6-4.9-.9-9.9-1.9-11-2.1-1.1-.3-5.1-1.2-9-2-13.7-2.8-13.4-2.8-13.3-.8zm14.6 97.5l.1 12.9-33.2-.2-33.1-.3.1-10.5c.1-5.8.1-11.5.2-12.7l.1-2.2H764.7l.1 13zm0 33.2c.1 7-.1 12.7-.5 12.8-3.1.4-64.6.3-65.1-.1-1.3-1-.8-24.5.5-25 .7-.3 15.5-.5 33-.5h31.8l.3 12.8zm.2 34.2V847h-66.5l.2-12.2c.1-6.8.2-12.9.2-13.6.1-.9 7.4-1.2 33.1-1.2h33v13.5z"/><path d="M676.5 669c-.3.6.2 2.2 1.3 3.8 5 7.1 10.7 21.7 11.6 30.1.6 4.9 2.2 6.5 8.1 8.2 13.3 3.7 24.2-7.3 20-20.2-3-9.1-15.2-17.5-30.6-21.3-7.6-1.9-9.6-2-10.4-.6zM584.5 677c-.3.5 2.4 5.1 6 10.2 7.9 10.9 14.8 24.6 17.2 34 1.6 6.4 2 7 5.8 8.8 14.5 7 28.3-5.5 23.7-21.5-3.8-13.1-16.9-23.1-38.7-29.3-9.6-2.7-13.3-3.3-14-2.2zM145.6 758.7c-6.8 14.2-31.5 38.6-48.8 48.2-5.1 2.8-6.8 5.8-2.3 4.1 19-7.2 46.3-27.7 59.3-44.5 1.5-2 2.5-2.6 2.9-1.7 2.6 6.3 15.1 20.9 24.8 29.1 4.9 4.1 15.9 11.3 20.7 13.7l3.7 1.7 2.6-3.1c1.4-1.7 3.5-3.4 4.5-3.7 3.7-1.2 1.9-3-6.3-6.4-16.4-6.9-33.1-18-42.9-28.5-5.3-5.7-5.7-6.6-2.9-6.6 4.3 0 2.8-1.8-2.7-3.3-10.5-2.9-10.7-2.9-12.6 1zM611.5 774.6l-6.9 9.4-6.1.1c-3.3 0-10.1 0-15.2-.1l-9.2-.1.5 2.8c.9 5.5.3 5.3 17.7 5.3h16.3v39.1l-.1 39.2-15.5 5.8c-8.5 3.2-16.3 6-17.2 6.3-1 .2-1.8.8-1.7 1.3.1 1.9 16.5 33.8 17.4 33.8.5 0 2.1-2 3.5-4.5s4.9-7 7.9-10c6.5-6.7 23.5-25.9 28-31.8 1.8-2.3 3.6-4.2 3.9-4.2.4 0 1.3 1.5 2.1 3.2.8 1.8 3.4 6.4 5.9 10.2 11.7 18.4 25.9 26.5 53.2 30.2 4.6.7 106.1 1.3 107.8.7.6-.3 1.2-1.3 1.2-2.4 0-1 1-4.4 2.1-7.5 2.5-6.5 7.4-11.9 13.7-14.6 9.4-4.2 7.9-4.3-64-4.3-37.6 0-71.4-.4-75.3-.9-16.8-2-29.3-7-38.6-15.4l-4.9-4.4.2-33 .3-33.1 4.8-1.2c5.2-1.3 8.7-3.9 7.2-5.3-6.6-5.6-30.5-24.2-31.1-24.1-.5 0-4 4.3-7.9 9.5z"/><path d="M170.1 797l-3.2 4h-23.4c-22.8 0-23.3 0-22.8 2 .5 1.9 1.4 2 31.7 2 22 0 31.5-.3 32.3-1.1.9-.9 0-2.2-3.5-5.1-7.5-6.2-7.5-6.2-11.1-1.8zM192.4 821l-2.9 4h-45.7c-45 0-45.6 0-45.1 2 .5 1.8 1.5 2 19.3 2.2l18.8.3-2.5 6.5c-5.2 13.8-10.6 26.1-11.6 26.7-.6.4-5.4.9-10.7 1.1-5.2.2-9.7.6-9.9.8-.3.3.7 3 2.3 6 2.5 5.2 2.8 5.5 4.4 4.1.9-.8 4.2-1.8 7.2-2.2 3-.4 6.2-.9 7-1 .8-.2 3.8-.6 6.5-.9 2.8-.4 10.9-1.5 18-2.6 7.2-1 15.3-2.2 18-2.5 2.8-.4 5.8-.9 6.7-1.1 1-.3 3-.7 4.5-1 1.6-.2 4.2-.6 6-.9 2.6-.5 3.5-.1 5.2 2.4 1.2 1.7 3.1 5 4.1 7.4 2.2 5 3.5 5.8 6.7 4.6 6.2-2.3 3-13.4-6.5-22.7-6.7-6.5-23.3-16.4-24.9-14.9-.3.4 2.1 3.5 5.5 6.9 7.7 8 11.6 12.8 10.5 12.9-.4 0-1.9.2-3.3.4-1.4.1-7.2.6-13 .9-5.8.4-13.2.9-16.5 1.1-15.8 1.2-21.5 1.5-21.5 1.1 0-.3 2.7-4.7 6-9.8 3.3-5.1 7.7-12.6 9.8-16.5l3.7-7.3 28.3-.1c32.5-.2 30.4-.1 30.9-1.5.3-1-10.1-10.4-11.6-10.4-.4 0-2 1.8-3.7 4z"/></svg>